<mxfile host="app.diagrams.net" modified="2024-04-06T04:06:36.997Z" agent="Mozilla/5.0 (Macintosh; Intel Mac OS X 10_15_7) AppleWebKit/537.36 (KHTML, like Gecko) Chrome/123.0.0.0 Safari/537.36" etag="Ox_9vbnY-esSxGfgcvO9" version="24.2.2" type="github">
  <diagram name="Trang-1" id="JAPIqoNAzrpt-J7T1iEE">
    <mxGraphModel dx="1026" dy="615" grid="1" gridSize="10" guides="1" tooltips="1" connect="1" arrows="1" fold="1" page="1" pageScale="1" pageWidth="827" pageHeight="1169" math="0" shadow="0">
      <root>
        <mxCell id="0" />
        <mxCell id="1" parent="0" />
        <mxCell id="xEurc2LzGAmFUFQsqLGS-1" value="" style="shape=image;verticalLabelPosition=bottom;labelBackgroundColor=default;verticalAlign=top;aspect=fixed;imageAspect=0;image=data:image/png,iVBORw0KGgoAAAANSUhEUgAAANoAAADnCAMAAABPJ7iaAAAAwFBMVEX///97QrwAAADVxul6QLt5Prv59vyYas56Or+bbNL8+/309PT5+fns7Ozk5OTDw8OLi4s0NDTb29ubm5t/f38+Pj4uLi6vr685OTnMzMwcHBy9vb2oqKhtbW2/v7/W1tZzc3NYWFgMDAwoKCiRkZFgYGBISEjr4/UhISEXFxd4Nr+phNby7fi/peBOTk6VlZXk2vGHUMfGr+LQveiSYcu3mdyMWMmdctHbze3t5/XCqeGmgdSpf9uLVsixkdnMt+bW4GT4AAAKkElEQVR4nO2cCXuiOhSGYyqWkU0FFyrWFavOVLu309t2/v+/uicJu4BarSxPvnmuVQgxLznn5CTEixAXFxcXFxcXFxcXFxcXFxfXT6h+l3ULfkz1p99/s27DD6l+Kd4/1LJuxY+o/qtaWT1dZN2MnxBBqwir15usG3J6UTQC9/Un66acWg5apQIuV8+6MaeVh1apipdvWbfmpPLRwCrFUg0EQTQCd1uegSCMRlzuMesmnUpRtAqMciXJvbbRSuNyMWjEKt9L4HKxaDAQlCD3ikcDuOLnXkloJPd6LrZVJqOBy1UKnXuloRGXK3DulYpGBoL/CutyO9DAKoX3rNv4Te1EqwhPBY0me6Bdlhvt4kQDwdvH+WLuvmirl8fjG/X3t/grf2iiIL4eOSOovd+L1TyikYHgqKWhiyexWskp2lHpyc3rSoAacosG89TPb80I/nxRsFyjQe51+Iyg/l4R3MtzjAafhefDXI46WSHQwOVe/u0/yt38Jwr+pXlHO2A1tnZbEUJX5h2NzFN/72OVj/eR6wqAttdq7N3LKlp5IdB2rsZCVrVddUHQiMsl5l6123sh7pKCoNHcK341FgJ+7AXFQaOP5bZd7u5jy8kyQYuzm/3RKtXVSyT3qrlZVdZor6vj0KKrsfUHMa3sGdFQ/TatKfughaY7b5+pJc+KRqN0mlHugQYu90mnO5BVpbvumdHgVl+mtGgvNLBK8Ljar53Fzo2G6v+iGdGhaBWRoF3uiknnR0sLa4VHA5dLGIxKgAYu9xQHVwo0GJNiXK4caGCVX0K0dWVBg/zvNTIQlAcNpsaVEEeZ0CK5V6nQwrlXydBgIHh1B4LSoUHu5eTw5UND6M8zHQjKiEYfr5QVDVzuZVVWNIQeKk9lRUN/30uLRlVmtF3rXnuiCU+5Q6v9Tl5bPABNrORxB+nda9KK8N5oonCbNUW86o+faStxO9ESnw/kQbXnSnI02YFWFV9zurXyhq0O3ySvxqajiZ//chc/HF3cO1u03p4SrDINTRByvI35Qly5jwn/xT8jSEarrj7yvBMWhuzq6j9mlfXnOKtMRFvlfP8yzUYEwXkyH94LkoqW/1/8sUSrKj4xl6tfbLlcLNrBO4MykJtDCuIHc7nabWQ1NgatevQWynPIT4+F1RezyshjuW008T6PWdWWgpm/KDywg3e/ArlXFE0Ub3PuZI7CkxrRfTJ/4VtlGK1AP4aOzNe8XZG+ywXRqqsiOJmjramoF/vc3MtHq4ovuc2qYhQzyxbd7fHsSbiHJlTyH/CDiltAqLq5V/0BZgQOWs6zqhjFr414uyJrXyu6A+Fy9ZnvrCpGScs+3q7Im9dHsrniIeN2fkPJK1rgcqxIzfmvaEpZrDv+FynZKnUd8shfpGSsHUus+Z+6JGvn6vHqs2Ax39PuhfFVIdL8GO235l9IcbQiiqMVURytiOJoRRRHK6I4WhHF0YoojlZElRjtLfXXe4VGQ3cfO+CKi4bqjy+pRllgNPKYMK3jCo2G0J+UXZEFR0vbFVl4tORdkcVHo7si46yyDGjxW7RKgkZ/tFFWtJhdkeVBQ7WvsFWWCA0GgpDLlQqN7oosKVro/wBWNjSyK9LJvcqHBi53SXOvMqI5uyLLiQa5171YUjSSexV2B8JuXRRuSx0XFxcXFxcXFxcXV0EkS/5rUErkvHzGNp1G8njagtc1eQ1KvRqzN/OmgtRBu9cet7avzrXkDh7C6xRH0TBmb6ZLVVrgSWeBzfO37ijJTQ9NVlRmfCr8VfES3sBnVUVdPFUlpQUmKamencI/5H3KpQCN9FcHt0wMsmVkkb8moI0wnqhoghULj1hZG860FdTAm05Xw6Mpxo1MG58uQDNms9kSt9SRrnewJV1hXTcUMEi8nuINWvpoBm5vxrgJaBj3NbgPmwnp8rwK0Jior1l4Ji3xUKa+pqAZ9EoAbQ7uJoEPNvBYRX1y0MbXGbZ9hwCta5rmArdkfTCYAwvYYbMhE1+LorWhj6QJlhvYQsVAa9E42bLwdNzDMyRrjSXuKiG0AS1L0ZYETS8IGouQ6gj3kQ5oEPWgW4Jo13g5VFRTGkNvmdQgKdpABhPVsgZIFkARtCXpNUxCHjjTgkZITBAbCGPV8Ufzmv5pQDihaFR5Dv8QDeF101CQbhtaQ5OtkT3qI6kxQ0gzNDRrSAjc0B7MVGQa9qiL0LVhErQ5fCpahrKX+k5sKaH6TmwpobS5lXUTuLgO1VC312vb6GaSakrxOkndythJUPH8JPUdJnncjlPvJANWxyXLJJrK/teHdAoL0v3qZieo7lB5k5ofQOv51XVPUN2h+kE0hVY0gaRMMrNINeXFj6GpTjadmbQ+1fWGubvzsX+CENmiNerHV3SstJO7e87QAuYjS4qixC4aS3GfaHEleEqNQWOVxn1/5KAULEauOmL1OoKmzsYwMcXTse5EgNbIMIw+OWPMJaTBpxHxR80ewaFuw24Tp500x7pKi2/gPK1x3YDrDHawP2ovoVDHdgohhZwjabbS6CnIhEobBMjc2M0JXtrU4VvWAK6azL8fZENoshGIKCzDZ8uUSBlgfKWgDeuQYRvjMULhCESNuhc+RhrZvwocMGgvUJudI4l8HVnKxWR+H/juoaz74+63nSWIJq+320rR5izYqGw0HtBGtBEah4rTSuahI1dqaACnl8kuWpOdMRnaVei6SfCTegK0YJ/Rm+eiOTKD7exIdM01Ur4dOrBQQtdTDVw0R32GlqLN8WjM//HUHg2m9J0dQeuHuoBY0qK3tgcD2zFDqGXcbDJTWvSazeZaclmn87Vrq8Mwmr4TzT4eja764zWJHwprkRxEmxhKAK2jy0gxVRZKJXZ8TiKcNGQtZjHRuV2WIsvSsOl+VwBtpPpoC3uje1nSct2wmMW3vxklA2gDpzOQ11nDANqInPDQ9EjQpsnNlL4NjWtdv3rXLNoBNLvllcFtmi+wG4OnFm0HtZ7m8Wi0p5bsMEsENQ9tzTIwB220NUTR+3slbaFt3FtExYKMh9YzA/hWEN+dDPVOhEZtocMOy/Rw30Vzxz2GFjPU2AloNNJM1GApD81tf9e9jT6acWI0Ws/EHlOF0dxVLD3UCUeiuffrDGjb85wENP8R8NAyBlSdfKNFMondaPIoXDy/aAf3mh0pnne0ZsfT1XUq2jB6J3KO1omcT0FjH9Y6UXsvtEFWaLSexf5o1NOW7HtTI6S3OWWcFZr7xfui0T5oolQ0lrw5A6FM0/tpBmhGiALJLWkPNNbLclI2wi6fsnkt68JBBmjOs9xRVzO1rg5DlZaOxlraUBRTZ+NGDJo7XTUsa+PM5boZoKHQdNBpXgradaR4LJoeLbREWaBFp43jdLTIAkI8WnQqTrO086Oh/nLrBqehaX5R6nfLODQplLJ0TL/Ij6MtYGxeuHN01fCyrc54QxcQrsjY7eb6Oik99dLja1a6MzDRHE70KJq6JDUGHgtf285S9aS9YfGkNSVF3PWcLvmKhXO/VNoel3pNCs6/iSYr4XVEaah1LatvtpTgeTlU2r9aMrtQlhyQ/BNKdGUSqWbfsrpay2tjqEj4K0KnlMj3cXFxcXFxcXFxcXFxcXFxcR2m/wFBevh+Fhrg8AAAAABJRU5ErkJggg==;" vertex="1" parent="1">
          <mxGeometry x="230" y="37.2" width="151" height="160" as="geometry" />
        </mxCell>
        <mxCell id="xEurc2LzGAmFUFQsqLGS-9" value="" style="shape=image;verticalLabelPosition=bottom;labelBackgroundColor=default;verticalAlign=top;aspect=fixed;imageAspect=0;image=https://media.dev.to/cdn-cgi/image/width=1000,height=420,fit=cover,gravity=auto,format=auto/https%3A%2F%2Fdev-to-uploads.s3.amazonaws.com%2Fuploads%2Farticles%2Fdyzwicbhbr3mq76prwwm.png;" vertex="1" parent="1">
          <mxGeometry x="237" y="310" width="603" height="253.26" as="geometry" />
        </mxCell>
        <mxCell id="xEurc2LzGAmFUFQsqLGS-10" value="" style="shape=image;verticalLabelPosition=bottom;labelBackgroundColor=default;verticalAlign=top;aspect=fixed;imageAspect=0;image=data:image/png,iVBORw0KGgoAAAANSUhEUgAAASwAAACoCAMAAABt9SM9AAAA7VBMVEX////xhwfvhAjziQbsgAnxhgf0iwX2jQTpfAv5kQLtgQn//vvneQvqfgr9lgH7lAL++vQxMTH64cr+9OcjIyMsLCzrjSzm5uYoKCj+5ML+8uGvr6/2iQD09PSoqKj+umP4xY74s2SNjY392Kn8zpNjY2M3Nzfd3d3yp2PujiLylinb29v9uVr84sa+vr7xnEL6w4AcHBx7e3tQUFDKyspZWVn3oDbtdwBycnJra2v1ggDlbwBHR0eampr83LT969YKCgrzpU/6wHn70Z/5rEv0pET3mRb4oS7zqF/0r2/ynUj3pkPwkSrwo2AUFBRqVmi/AAAKXUlEQVR4nO3bC3uiuBoH8NTxbt2FI1Sq4FCseNQVRXBUVrHWuezOdvr9P87JBRQQnO7WOd1J8n96EcE++nvehCRQAHh4eHh4eHh4eHh4eHh4eHh4eHh4eHh4eHh4eHj+j6n9gLz1Z/pR2e7ugrw/l9/+Tu5p1RovvMIh6klK8AuF/ESpJPNrmF+CVH6jFsu7unoXplhE30FKsaT7HIWieU8r1n8g1qW1qMVClXVpLWqxcGVdWItirMLFtWjGurgW1ViX1qIb68JalGNdVOtX2rEuqUUxVr7wcq2TqU6qFsVYi9yLtE6njWTqiHdUYlpUY8W0IlxRrcr97Znc/xLVohvru7VVUu/P/5VptLYox/qeVqnkg+3jNCu3oFuJ9Fu0Y32nJSIs3wv7qVKwvBV28rDsupWIFvVY57VUhKVGz4nRE2Pp/lBZWIt+rPMtMYZ1MoyIYkGtCv1YZ2sLYt0msErplQW1WMA6p1Xq1rpqKWMsH+2zUJjAOqc1/DBUY2P5iFaJSawsLVUtktNgorRK0cqqMIFVPaP16E/Vd0Xf/6Cq7/17OGTY+3cl9a9udxjRCrAqTGCd0YL9uqcOALhToUijqHoNcA/dAPikRoYRAVaFCawsrXdeF/gLrwhtvMUj2KreogWmnvexJnxQjy0xrKxQi3KsDC1vtwUtfb8HwNf1MRD2e10AY133a0CvHPutI1aFCawUrULBmwrZr7sNL+yXolgVJrBOtK4mk09bIDQyAmpTOJo4xaowgZXQyk0aAqyr/fBDWr58hFpCbe+dYlWYwIpr5SYCwtIXqbfYeMMWwuqmYVWYwIprXQ2Hn1pAT7/HRv3SAvefv3xOaYYoFGPlU7VyBW+wxVgp61sI69FL6+Cpx8rQOmKdrm8NI1hozblbYgYrTWsw1fVGiJXUQli30/udesQqMYN1qlX9ivfqXuoaBMKC8b1IZUXWtyjHOmjlyEYu9+TfjgWElaaFsLb+7ZRglQjWQat0Ry9WPaKVu/rjT5QJrK1FcYuxUrSCPkuN9lmR9S2asaJaPnm2i1riIMA61UJYU9jBk9VA0mcd17foxjpo5ScAoMmMoMN2OJhsw0HpyWogxNKLwyLROmKVWMAKtSBWYzIYDIaD6lf8gcMRfEIr6OC7XqKygvUtyrECLYQ1QCWWS2AltA5YqocSwSqxgEW0MBYZQVztdnewrS1S1+ULEGv/18cP6hAvQQgRrBILWPUYFtSq5lEHn36PTYF08Ko6Cf7KXeSiIgtY9RgWbIj5K4KVolUIhg7FgY5uDNHvYtd8VAaw6jGsp6m+bxCsU60Cme7ckUtkqpq4WM0CVj1fP2KFHXzqFbJCON1Jv++UCax6PTwbVquT8bZVC7GSWgirsW3pXvpduvRi/R6xKh+xYBcfdPApWqSDL2bd00wxVjmJlQ96+ChWXItgRVYDY1oUd/C/l8tJLKK1iGHFtMjZsJChRTdWOYmFxvINcsEi9eorwhIawt5L1aIcq5zEyteDxb/fF6n5HJwN02uLcqxyEis/eHycNkBjnJ5tDfiP013hXZoW7ZUVaBGsYJ6YX+zPvK419AqF+DWfUIt+rHIEK9CqXumwtnzfB2Ds+1sg+H5XAFvfH8MW+MnL+F8MJrDKIVZkxWbhg9tFdQDArpqfgta73ALOgHLeriZM4v+0H9NiAascYJWPWrkIlg5auVweY93VapNC9v/5MIFVri8OWIHWXvDz1YEg7KrVqTC+yuW3tWnB2zVak+QN8xEtNrDKh2YYag1u4Lw6d3ODrrrePMGfTzcDONR6ero68z9kNGNdp2OFvfzh6ms1NxjE7nbL0qIa66h1fWyG9dgVMrIsPx5Pqi/QohvrOh0rUVv5Xa22q76gtijHuk7Himvld4LwtZr7vhbtWNcRrOhiYBbWWS3qsa4PWPnTaXMZfsPZTxTrnBb9WNcBlvDnt2//hV+n+abXhF01uWKTosUAFtK6vjl/cGMSud0tU4sFLFxbunAmjWns5sAsLSawoNb1ojzIyHA4JH39d7XYwCL91mHUBSfWZDEinxzMn9diBCs68zkZQaTdppuqxQrWRbQKrGBdQosdrAtoMYT1ei2WsF6txRTWa7XYwnqlFmNYr9NiDetVWh5rWFGtA1g+Me9J04KhF2ubuzmfJ/h1kuG5fH6kFQucW5P5h6HWioeHh4eH4jTbndFbv4efJptnu6e99Zv4SaL1ZFHhpfWyjCTHsI23fhc/SQx749rroB1q8LfmWi7abMLfwbMjq231ycOmhtMke0bW4Rj0TP+wSWc00x41HdnCG33H6RuOKJnzfn+5lhVzifAMx5QleT2Dj5u9NYrjmAjFnZuSYs6xz9K03JWpyOaq+ZYf58fGUmDvbtgzvDESRdNczZamMhfXK6MnSrB9NufO0ggfr5z5fN5by89QyJKl+Ww2lxQk3VPWkrMy5vgwWrO0O/Bji2tcDyNTnKHmZsjSBj2xknqoEeI2aihOE7VT1AZXEiy5piPhwptJJtzRk9cWOq6n0Htq7a9Rg9Icu422IBZuj64sYTxDOn5yV3TCBmZIDny6ba9xP9Y0Fejdk0hxGhRjdewe+mVIK/QRs7Bgtw5cM8Tq2CYuP2mON7WltEJYpPlRjKWtFENrNjVLFtHnT8dqbmBPtVyGlWUp+CBtFdQSUWMAaySLJj6/ycoGZGA157bZW81NmWD116jV4YJiDGsjrWc4PcUBGVgbGysFzRDSBae7mdQjDwz0gH4sbS11yKO+LLrpWNpc2uDnCNbqOagn2HWRU6jmoKqkH8uSZTIwhzNE1KhSsVaYQevgZgibHBHC7RErbiT0R+jHmpGTIApskM0jlhJrhuLGbc9l1MG7otjDzXY1Qi9Rlm1rqeDqpB6rbz50wseu/NCGk2qbYD0/4IozHuYa7Mlt++FhhQeuri3ZzzD2Azqus4Ybton/xvwhGGc9OHRioUHDYQM/Dp6AO8DxtzbqtPvwrNjETwQhx1mbTTs8VAPRl/Lw8PDw8PDw8KRE64cZhaOmkQUTzI2aLhxe9d/s3f3L0hHNIDKe/mltxxRR0Ci9aZiiLIsmxWvtfysdWRRlBQWvx2hLScbbaKrYX0uyIimiaG/e+m3+OwKxzJmBZ8xoDriUoN18ZhgOnHe7iuIYHQNVGp/YoCCsY5/UhnW2xhcH0TVYd47n2htZVKi+oPrixLDQzRDi0UUjE2YXdlwcCwVhHdrYCLIsTw6BlSXxEyIKwtq0UVC7s0WpnTyiuRaVU0Emg86GigSDFowtiGUlj5jB0yG/TwkHYcGxlCybGVgbRVQ6qS9lL7gZWkEzTMGC50eFj0mDxDp4V0nKtEVR4h1WmNjQoemIYuwihAVH8ys6r0r8k8QqC3XminHEGZmyyNvgMQirg5YZrPYIjz9FedWx3HbH6MMtWXTIPouXF4icDUU8ke4oaB4tmrIkucCAE0UT75TXfHII03mWgjzjBmc5igRxFMkcAeOwzzY5FsyoHaZD5n+atZmtlkbH1YDbOexs82aYEU3jNDw8PDw8PDw8PDwp+R9OkShHjVwEagAAAABJRU5ErkJggg==;" vertex="1" parent="1">
          <mxGeometry x="570" y="49.999999999999986" width="240" height="134.4" as="geometry" />
        </mxCell>
        <mxCell id="xEurc2LzGAmFUFQsqLGS-11" value="" style="endArrow=none;html=1;rounded=0;exitX=0.75;exitY=0;exitDx=0;exitDy=0;entryX=0.5;entryY=1;entryDx=0;entryDy=0;startArrow=classicThin;startFill=0;endFill=0;" edge="1" parent="1" source="xEurc2LzGAmFUFQsqLGS-9" target="xEurc2LzGAmFUFQsqLGS-10">
          <mxGeometry width="50" height="50" relative="1" as="geometry">
            <mxPoint x="420" y="320" as="sourcePoint" />
            <mxPoint x="580" y="260" as="targetPoint" />
          </mxGeometry>
        </mxCell>
        <mxCell id="xEurc2LzGAmFUFQsqLGS-12" value="" style="endArrow=none;html=1;rounded=0;entryX=1;entryY=0.5;entryDx=0;entryDy=0;startArrow=classicThin;startFill=0;endFill=0;" edge="1" parent="1" source="xEurc2LzGAmFUFQsqLGS-10" target="xEurc2LzGAmFUFQsqLGS-1">
          <mxGeometry width="50" height="50" relative="1" as="geometry">
            <mxPoint x="689" y="310" as="sourcePoint" />
            <mxPoint x="690" y="194" as="targetPoint" />
          </mxGeometry>
        </mxCell>
        <mxCell id="xEurc2LzGAmFUFQsqLGS-13" value="&lt;font style=&quot;font-size: 24px;&quot;&gt;Provisioning&lt;/font&gt;" style="text;html=1;align=center;verticalAlign=middle;whiteSpace=wrap;rounded=0;" vertex="1" parent="1">
          <mxGeometry x="440" y="80" width="60" height="30" as="geometry" />
        </mxCell>
        <mxCell id="xEurc2LzGAmFUFQsqLGS-14" value="&lt;font style=&quot;font-size: 24px;&quot;&gt;Build Dockerfile&lt;/font&gt;" style="text;html=1;align=center;verticalAlign=middle;whiteSpace=wrap;rounded=0;" vertex="1" parent="1">
          <mxGeometry x="587" y="220" width="263" height="30" as="geometry" />
        </mxCell>
      </root>
    </mxGraphModel>
  </diagram>
</mxfile>
